<svg xmlns="http://www.w3.org/2000/svg" viewBox="0 0 512 512">
  <!-- CANDIDATE 2: THE ANCIENT — Real Southern Cassowary silhouette
       Source: PhyloPic by T. Michael Keesey (Public Domain CC0)
       Species: Casuarius casuarius johnsonii
       Full body, authentic proportions, gold casque highlight -->
  <rect width="512" height="512" rx="72" fill="#0a0f0a"/>

  <!-- Subtle circular container -->
  <circle cx="256" cy="256" r="225" fill="none" stroke="rgba(74,158,63,0.15)" stroke-width="1"/>

  <!-- THE CASSOWARY — real vector silhouette, transformed to fit -->
  <g transform="translate(130, 475) scale(0.031, -0.031)">
    <path fill="#4a9e3f" d="M2310 15336 c-241 -86 -513 -269 -750 -506 -147 -147 -229 -251 -366
-465 -49 -76 -113 -165 -142 -197 -92 -99 -237 -165 -457 -208 -201 -40 -384
-119 -476 -207 -63 -60 -127 -168 -116 -197 17 -43 186 -75 562 -106 307 -25
379 -35 477 -66 107 -34 331 -143 531 -257 402 -232 472 -305 484 -510 5 -74
2 -106 -15 -167 -12 -41 -28 -118 -37 -170 -9 -52 -25 -113 -35 -135 -12 -25
-19 -58 -18 -86 2 -37 -3 -52 -24 -78 -15 -17 -30 -48 -33 -69 -7 -49 -81
-271 -173 -517 -134 -361 -180 -500 -272 -827 -114 -406 -126 -482 -145 -918
-17 -409 -22 -500 -40 -706 -16 -186 -12 -217 29 -222 46 -6 74 6 122 50 57
53 102 114 174 239 l58 100 138 -263 c75 -145 167 -317 204 -383 301 -539 315
-562 444 -712 99 -117 167 -168 300 -228 119 -53 215 -110 286 -167 29 -24 69
-55 88 -70 l34 -27 38 21 37 22 53 -22 c77 -32 84 -30 76 19 -11 68 14 43 74
-75 50 -98 80 -134 113 -136 13 0 7 35 -19 95 -14 33 -28 68 -31 78 -11 36 36
16 138 -59 117 -86 177 -119 234 -130 36 -6 38 -6 32 16 -8 31 6 55 55 90 62
45 97 41 161 -19 61 -57 88 -72 128 -73 39 -1 51 12 58 64 6 42 7 43 43 42 24
-1 50 -11 71 -27 29 -22 35 -35 41 -77 11 -86 65 -120 188 -120 46 0 62 4 79
21 l22 22 71 -32 c39 -17 76 -31 82 -31 6 0 26 22 44 49 41 60 75 81 131 81
40 0 47 -4 119 -80 59 -62 83 -80 104 -80 33 0 42 21 28 68 -6 20 -10 38 -8
40 13 12 74 -55 92 -101 6 -16 2 -18 -27 -15 -33 3 -34 2 -34 -32 0 -28 6 -38
33 -56 18 -12 50 -25 72 -28 22 -3 58 -9 79 -12 27 -4 94 -40 203 -108 143
-90 260 -147 274 -134 2 3 -29 74 -70 159 -41 85 -77 166 -81 182 -14 53 22
28 120 -83 103 -116 122 -133 332 -303 193 -156 342 -269 395 -297 39 -20 50
-22 72 -12 56 25 28 78 -109 207 -80 76 -108 117 -67 100 31 -14 79 -17 86 -6
15 24 67 7 206 -69 185 -101 239 -124 342 -150 120 -30 126 -33 133 -77 57
-367 159 -766 251 -986 30 -71 54 -138 54 -150 0 -47 20 8 21 58 2 119 44 168
82 95 24 -47 18 -107 -21 -195 -31 -71 -41 -117 -107 -499 -54 -306 -94 -426
-215 -646 -71 -128 -380 -807 -380 -834 0 -8 -22 -39 -49 -67 -27 -29 -78
-102 -112 -163 -141 -252 -344 -595 -384 -651 -83 -117 -209 -225 -261 -225
-13 0 -94 17 -181 39 -295 72 -438 79 -555 24 -79 -37 -130 -81 -157 -135 -28
-58 -17 -68 75 -68 69 0 75 -2 83 -23 9 -22 19 -24 178 -41 92 -10 170 -20
172 -22 11 -11 -12 -32 -42 -38 -56 -10 -520 -26 -789 -26 -141 0 -270 -5
-300 -11 -172 -36 -328 -177 -319 -288 1 -11 17 -13 85 -8 75 6 94 4 187 -24
99 -29 114 -31 299 -33 149 -2 212 -7 270 -21 63 -15 86 -17 155 -7 48 6 98 7
125 2 59 -11 163 -50 155 -58 -3 -3 -47 -21 -97 -39 -218 -77 -322 -189 -322
-344 0 -104 45 -142 118 -98 34 19 55 23 126 24 l85 0 260 122 c146 68 291
129 330 139 162 39 551 199 603 248 49 45 145 252 247 531 208 571 547 1281
832 1743 222 360 402 595 664 868 196 203 235 319 239 709 2 137 11 191 32
187 9 -1 19 1 22 6 2 4 10 87 16 183 11 172 61 510 101 681 26 113 45 130 129
121 67 -7 79 3 49 41 -49 62 -2 39 173 -83 103 -72 189 -131 191 -131 3 0 -10
30 -29 66 -56 108 -40 138 46 85 l50 -31 0 28 c-1 15 -7 54 -15 87 -8 32 -13
61 -11 62 2 2 50 -48 106 -112 63 -71 109 -115 119 -113 8 2 22 21 31 43 23
61 29 68 47 54 20 -17 43 -64 97 -198 47 -117 70 -161 85 -161 5 0 28 25 51
55 23 30 48 55 55 55 16 0 193 -183 234 -243 18 -27 48 -81 67 -122 38 -83 59
-99 68 -53 5 26 9 29 28 23 63 -18 98 -25 145 -25 49 0 54 -2 90 -45 25 -31
50 -49 75 -56 29 -7 43 -19 57 -47 44 -85 186 -212 238 -212 11 0 37 14 58 30
21 17 41 30 44 30 15 0 40 -29 108 -120 117 -158 320 -336 233 -205 -36 54
-17 101 28 70 11 -8 53 -89 93 -181 86 -192 129 -252 313 -433 160 -157 179
-198 276 -611 69 -290 87 -379 130 -616 22 -125 63 -324 91 -443 87 -371 99
-438 99 -546 0 -55 11 -208 25 -340 30 -291 32 -416 7 -465 -20 -42 -66 -68
-242 -141 -216 -90 -368 -139 -524 -170 -251 -49 -321 -76 -387 -146 -55 -58
-75 -137 -45 -179 14 -19 16 -18 95 9 44 16 85 26 91 22 15 -9 12 -62 -6 -98
-10 -18 -39 -65 -66 -105 -65 -96 -83 -139 -67 -158 17 -20 79 -17 114 6 39
26 93 26 120 0 21 -19 22 -19 320 0 323 21 394 34 503 90 68 34 98 56 191 137
78 69 107 80 97 37 -4 -14 -46 -116 -94 -227 -83 -193 -86 -205 -87 -277 0
-90 28 -158 79 -190 48 -29 78 -26 98 10 12 21 38 40 80 59 47 21 82 48 139
107 96 100 193 223 224 283 36 72 131 347 148 429 13 60 24 85 61 132 53 67
61 85 70 161 14 112 -28 253 -169 574 -86 195 -119 293 -170 501 -70 287 -104
402 -143 479 -31 61 -36 83 -43 175 -9 122 -34 242 -95 465 -73 264 -102 430
-174 1008 -88 705 -97 752 -152 752 -23 -1 -25 2 -16 26 22 65 -40 169 -343
572 -258 342 -297 406 -379 611 -58 146 -123 452 -136 639 -11 155 25 299 89
353 25 21 29 30 24 59 -5 31 -3 35 17 35 29 0 46 19 84 95 19 37 32 54 35 45
28 -88 40 -110 64 -116 35 -9 42 3 64 97 11 46 27 91 36 101 17 19 53 138 53
178 1 20 6 14 27 -29 48 -100 131 -164 215 -165 76 -1 77 1 109 247 6 48 14
87 18 87 4 0 40 -91 80 -202 40 -112 91 -240 112 -286 69 -144 162 -215 190
-144 15 37 5 188 -25 387 -15 93 -21 164 -16 169 14 14 37 -11 51 -52 7 -20
27 -59 45 -85 41 -59 68 -142 94 -291 11 -61 27 -117 35 -125 13 -13 16 -10
29 21 9 20 21 80 29 134 l14 99 12 -45 c39 -149 41 -152 101 -171 66 -21 133
-89 152 -152 14 -52 25 -67 49 -67 31 0 49 41 55 126 7 98 12 126 23 119 12
-7 38 -156 51 -295 9 -94 15 -119 31 -135 l21 -20 26 34 c72 91 87 104 116 97
49 -12 72 -93 91 -318 4 -42 13 -85 21 -95 13 -17 15 -17 38 9 30 33 41 109
32 211 -19 218 -19 272 -2 290 22 21 55 22 63 1 3 -9 -2 -46 -11 -84 -9 -37
-16 -87 -16 -111 1 -70 35 -231 52 -240 46 -26 59 -46 67 -102 9 -67 22 -80
71 -73 43 7 57 25 66 85 3 25 24 94 46 154 48 132 65 220 78 397 5 76 13 145
16 154 7 18 9 19 89 20 l59 1 24 45 c14 25 36 63 51 84 l26 39 -1 311 c-1 436
-24 780 -64 973 -53 257 -263 903 -385 1188 -241 566 -634 1215 -936 1548
-189 208 -566 467 -941 647 -175 83 -302 131 -803 299 -441 147 -656 202 -975
250 -185 27 -237 30 -530 35 -242 4 -366 11 -485 26 -88 11 -249 25 -358 31
-185 10 -208 10 -350 -11 -112 -17 -174 -21 -237 -16 -70 5 -98 2 -155 -14
-38 -12 -119 -28 -180 -36 -155 -21 -687 -155 -815 -207 -36 -14 -121 -37
-190 -51 -195 -41 -355 -101 -378 -143 -7 -12 -25 -17 -63 -18 -101 -4 -436
-150 -577 -252 -37 -27 -145 -96 -242 -155 l-175 -108 -3 36 c-2 19 -7 34 -12
32 -5 -2 -96 -87 -203 -189 -151 -146 -200 -200 -226 -248 -17 -33 -47 -72
-66 -87 -103 -78 -609 -336 -680 -347 -22 -3 -94 -33 -161 -67 -148 -74 -270
-170 -332 -259 -93 -137 -246 -299 -496 -525 l-88 -79 -71 -5 c-94 -6 -296 13
-341 32 -46 19 -126 127 -167 225 -47 112 -79 267 -86 411 -5 115 -3 133 21
224 39 140 122 376 145 406 10 14 30 76 45 139 28 119 37 143 67 176 10 12 26
57 35 100 9 45 26 95 40 116 14 20 33 75 45 130 11 52 33 117 49 145 25 45 31
74 54 265 33 269 51 365 73 398 15 22 18 48 17 186 0 276 -42 492 -128 671
-105 219 -256 403 -455 558 -81 62 -111 92 -128 126 -26 55 -62 213 -103 460
-45 270 -74 365 -127 412 -57 51 -143 60 -243 24z"/>
  </g>

  <!-- CASQUE HIGHLIGHT — gold overlay on the casque area -->
  <g transform="translate(130, 475) scale(0.031, -0.031)">
    <!-- Casque region approximation — top of the head -->
    <circle cx="8500" cy="14800" r="600" fill="#c8a84b" opacity="0.9"/>
    <ellipse cx="8200" cy="15100" rx="400" ry="250" fill="#c8a84b" opacity="0.7"/>
  </g>
</svg>